<svg width="42" height="42" viewBox="0 0 42 42" fill="none" xmlns="http://www.w3.org/2000/svg">
  <circle cx="21" cy="21" r="20" stroke="white" stroke-opacity="0.3" stroke-width="2"/>
  <path d="M21 11C15.477 11 11 15.588 11 21.235C11 25.777 13.865 29.603 17.839 30.965C18.339 31.056 18.521 30.743 18.521 30.47C18.521 30.224 18.512 29.508 18.507 28.614C15.726 29.238 15.139 27.365 15.139 27.365C14.682 26.167 14.027 25.848 14.027 25.848C13.118 25.217 14.097 25.23 14.097 25.23C15.103 25.304 15.633 26.305 15.633 26.305C16.528 27.889 17.984 27.431 18.56 27.169C18.651 26.497 18.905 26.034 19.185 25.769C16.999 25.516 14.707 24.639 14.707 20.742C14.707 19.631 15.09 18.722 15.719 18.006C15.616 17.753 15.274 16.682 15.817 15.214C15.817 15.214 16.66 14.938 18.503 16.212C19.302 15.981 20.158 15.866 21 15.862C21.842 15.866 22.698 15.981 23.497 16.212C25.34 14.938 26.182 15.214 26.182 15.214C26.726 16.682 26.384 17.753 26.281 18.006C26.91 18.722 27.293 19.631 27.293 20.742C27.293 24.649 24.997 25.512 22.804 25.759C23.153 26.07 23.469 26.675 23.469 27.597C23.469 28.912 23.457 29.965 23.457 30.47C23.457 30.745 23.637 31.061 24.144 30.963C28.116 29.598 31 25.775 31 21.235C31 15.588 26.523 11 21 11Z" fill="white"/>
</svg>